<svg width="20" height="29" viewBox="0 0 20 29" fill="none" xmlns="http://www.w3.org/2000/svg">
<path fill-rule="evenodd" clip-rule="evenodd" d="M2.92974 2.91166C-0.976581 6.79387 -0.976581 13.0883 2.92974 16.9706L10.001 24L17.0708 16.972C20.9764 13.0891 20.9764 6.79458 17.0708 2.91166C13.1659 -0.970552 6.83464 -0.970552 2.92974 2.91166ZM13.96 11.5717C13.7446 12.0887 13.4289 12.5585 13.0309 12.9541C12.2271 13.7532 11.137 14.2022 10.0003 14.2022C8.86356 14.2022 7.77341 13.7532 6.96964 12.9541C6.16586 12.155 5.71431 11.0712 5.71431 9.9411C5.71431 8.811 6.16586 7.72718 6.96964 6.92808C7.36762 6.5324 7.8401 6.21853 8.3601 6.0044C8.8801 5.79026 9.43743 5.68004 10.0003 5.68004C10.5631 5.68004 11.1204 5.79026 11.6404 6.0044C12.1604 6.21853 12.6329 6.5324 13.0309 6.92808C13.4289 7.32375 13.7446 7.79349 13.96 8.31047C14.1754 8.82744 14.2862 9.38153 14.2862 9.9411C14.2862 10.5007 14.1754 11.0548 13.96 11.5717ZM10 29C12.2091 29 14 28.3284 14 27.5C14 26.6716 12.2091 26 10 26C7.79086 26 6 26.6716 6 27.5C6 28.3284 7.79086 29 10 29Z" fill="#C4CAD3"/>
</svg>
